<svg width="130" height="105" viewBox="0 0 130 105" fill="none" xmlns="http://www.w3.org/2000/svg">
<path d="M129.979 2.13393C130.007 1.95262 130.008 1.77258 129.976 1.59507C129.972 1.56844 129.975 1.54308 129.969 1.51646C129.921 1.30979 129.828 1.11453 129.705 0.930686C129.692 0.9104 129.69 0.888846 129.677 0.868559C129.656 0.838129 129.621 0.822915 129.598 0.793753C129.549 0.732893 129.511 0.664426 129.452 0.608639C129.378 0.537636 129.289 0.485652 129.206 0.42606C129.162 0.394362 129.123 0.357593 129.076 0.329699C128.883 0.211784 128.672 0.121762 128.446 0.0647065C128.406 0.0545633 128.366 0.0532955 128.325 0.0456881C128.134 0.00765093 127.939 -0.00629594 127.742 0.0025794C127.675 0.00511522 127.613 0.0101869 127.546 0.0177944C127.49 0.0254018 127.432 0.0203299 127.376 0.0304731L1.69446 24.6988C0.811802 24.8726 0.14439 25.509 0.0201526 26.2951C-0.10264 27.0812 0.343747 27.8534 1.13973 28.2287L35.1214 44.2817L45.7061 73.8999C45.7177 73.9316 45.7422 73.9545 45.7552 73.9849C45.7856 74.0559 45.8304 74.1193 45.8708 74.1878C45.956 74.3323 46.0543 74.4642 46.1756 74.5833C46.2074 74.615 46.219 74.6556 46.2536 74.6848C46.2854 74.7114 46.3259 74.7203 46.3591 74.7456C46.5021 74.8547 46.6581 74.9422 46.8286 75.0157C46.8965 75.0449 46.9557 75.0829 47.0251 75.1044C47.262 75.1818 47.5105 75.2312 47.7719 75.2312C47.7878 75.2312 47.8037 75.2312 47.8196 75.2312C48.0782 75.2262 48.3238 75.1754 48.5549 75.0956C48.6141 75.0753 48.6632 75.0398 48.7196 75.0157C48.9031 74.9358 49.0721 74.8395 49.2238 74.7177C49.2527 74.6949 49.2902 74.6873 49.3177 74.6619L66.6661 59.1821L100.152 75.0017C100.472 75.1526 100.825 75.23 101.179 75.23C101.451 75.23 101.725 75.1856 101.984 75.0943C102.579 74.8864 103.039 74.4553 103.239 73.9202L129.906 2.48007C129.926 2.42428 129.927 2.36596 129.942 2.3089C129.958 2.25058 129.971 2.19352 129.979 2.13393ZM111.855 6.97479L36.9445 40.8266L8.30936 27.2981L111.855 6.97479ZM107.355 13.2877L53.1719 49.7666C53.1676 49.7692 53.1647 49.7742 53.1618 49.7768C53 49.8871 52.8599 50.0227 52.7371 50.1749C52.7111 50.2066 52.6865 50.2383 52.6634 50.2712C52.6388 50.3067 52.6071 50.3372 52.5839 50.3739C52.5059 50.5007 52.4496 50.6326 52.4077 50.7657C52.4063 50.7721 52.4005 50.7771 52.399 50.7835L47.6058 66.5144L39.5362 43.9342L107.355 13.2877ZM51.9859 66.8593L55.8762 54.0889L62.6905 57.3081L51.9859 66.8593ZM99.9254 70.5806L58.4679 50.9952L123.606 7.14089L99.9254 70.5806Z" fill="black"/>
<path d="M33.8668 105C33.3178 105 32.7689 104.817 32.347 104.453C31.4933 103.717 31.4817 102.514 32.321 101.764L52.9675 83.3441C53.8068 82.5935 55.1792 82.5859 56.0315 83.3213C56.8853 84.0579 56.8968 85.2612 56.0575 86.0105L35.4125 104.432C34.9878 104.811 34.4273 105 33.8668 105Z" fill="black"/>
<path d="M67.86 97.5334C67.311 97.5334 66.7621 97.3508 66.3403 96.9869C65.4865 96.2502 65.4749 95.047 66.3142 94.2977L86.9593 75.8788C87.8 75.1295 89.171 75.1206 90.0233 75.856C90.877 76.5926 90.8886 77.7959 90.0493 78.5452L69.4057 96.9653C68.981 97.3432 68.4205 97.5334 67.86 97.5334Z" fill="black"/>
<path d="M27.4165 81.857C26.8676 81.857 26.3186 81.6744 25.8968 81.3105C25.043 80.5739 25.0314 79.3707 25.8708 78.6213L40.9598 65.1587C41.7991 64.4094 43.1715 64.4005 44.0238 65.1359C44.8776 65.8725 44.8891 67.0758 44.0498 67.8251L28.9622 81.2877C28.5375 81.6668 27.977 81.857 27.4165 81.857Z" fill="black"/>
</svg>
